<svg xmlns="http://www.w3.org/2000/svg" width="620" height="330" viewBox="0 0 620 330">
<defs><marker id="a" viewBox="0 0 10 10" refX="9" refY="5" markerWidth="7" markerHeight="7" orient="auto-start-reverse"><path d="M0,0 L10,5 L0,10 z" fill="#333"/></marker><marker id="ar" viewBox="0 0 10 10" refX="9" refY="5" markerWidth="7" markerHeight="7" orient="auto-start-reverse"><path d="M0,0 L10,5 L0,10 z" fill="#d93025"/></marker><marker id="ab" viewBox="0 0 10 10" refX="9" refY="5" markerWidth="7" markerHeight="7" orient="auto-start-reverse"><path d="M0,0 L10,5 L0,10 z" fill="#3b5bdb"/></marker><marker id="tri" viewBox="0 0 12 12" refX="11" refY="6" markerWidth="13" markerHeight="13" orient="auto-start-reverse"><path d="M0,0 L12,6 L0,12 z" fill="#fff" stroke="#333" stroke-width="1"/></marker></defs>
<rect width="100%" height="100%" fill="#fff"/>
<path d="M40,40 H150 V108 L138,120 H40 Z" fill="#fff" stroke="#333" stroke-width="1.2"/>
<path d="M150,108 H138 V120" fill="none" stroke="#333" stroke-width="1.2"/>
<text x="48" y="64" font-family="'Source Code Pro','Consolas','Menlo',monospace" font-size="14" fill="#333" text-anchor="start" font-weight="normal" xml:space="preserve">main.cpp</text>
<path d="M260,40 H370 V108 L358,120 H260 Z" fill="#fff" stroke="#333" stroke-width="1.2"/>
<path d="M370,108 H358 V120" fill="none" stroke="#333" stroke-width="1.2"/>
<text x="268" y="64" font-family="'Source Code Pro','Consolas','Menlo',monospace" font-size="14" fill="#333" text-anchor="start" font-weight="normal" xml:space="preserve">sample.h</text>
<path d="M260,200 H370 V268 L358,280 H260 Z" fill="#fff" stroke="#333" stroke-width="1.2"/>
<path d="M370,268 H358 V280" fill="none" stroke="#333" stroke-width="1.2"/>
<text x="268" y="224" font-family="'Source Code Pro','Consolas','Menlo',monospace" font-size="14" fill="#333" text-anchor="start" font-weight="normal" xml:space="preserve">sample.cpp</text>
<line x1="150" y1="80" x2="258" y2="80" stroke="#333" stroke-width="1.2" marker-end="url(#a)"/>
<line x1="315" y1="200" x2="315" y2="122" stroke="#333" stroke-width="1.2" marker-end="url(#a)"/>
<polygon points="420,66.0 420,82.0 372,80" fill="#fff" stroke="#777" stroke-width="1"/>
<rect x="420" y="52" width="170" height="44" rx="10" fill="#fff" stroke="#777" stroke-width="1"/>
<line x1="420.0" y1="66.0" x2="420.0" y2="82.0" stroke="#fff" stroke-width="2"/>
<text x="505.0" y="78.55" font-family="'Noto Sans JP','Hiragino Sans','Meiryo',sans-serif" font-size="13" fill="#333" text-anchor="middle" font-weight="normal" xml:space="preserve">クラスSampleの定義</text>
<polygon points="420,230.0 420,246.0 372,240" fill="#fff" stroke="#777" stroke-width="1"/>
<rect x="420" y="216" width="170" height="44" rx="10" fill="#fff" stroke="#777" stroke-width="1"/>
<line x1="420.0" y1="230.0" x2="420.0" y2="246.0" stroke="#fff" stroke-width="2"/>
<text x="505.0" y="242.55" font-family="'Noto Sans JP','Hiragino Sans','Meiryo',sans-serif" font-size="13" fill="#333" text-anchor="middle" font-weight="normal" xml:space="preserve">クラスSampleの実装</text>
<polygon points="95.0,180 115.0,180 95,122" fill="#fff" stroke="#777" stroke-width="1"/>
<rect x="30" y="180" width="150" height="40" rx="10" fill="#fff" stroke="#777" stroke-width="1"/>
<line x1="95.0" y1="180.0" x2="115.0" y2="180.0" stroke="#fff" stroke-width="2"/>
<text x="105.0" y="204.2" font-family="'Noto Sans JP','Hiragino Sans','Meiryo',sans-serif" font-size="12" fill="#333" text-anchor="middle" font-weight="normal" xml:space="preserve">クラスSampleの利用</text>
</svg>
