<svg xmlns="http://www.w3.org/2000/svg" width="480" height="330" viewBox="0 0 480 330">
<defs><marker id="a" viewBox="0 0 10 10" refX="9" refY="5" markerWidth="7" markerHeight="7" orient="auto-start-reverse"><path d="M0,0 L10,5 L0,10 z" fill="#333"/></marker><marker id="ar" viewBox="0 0 10 10" refX="9" refY="5" markerWidth="7" markerHeight="7" orient="auto-start-reverse"><path d="M0,0 L10,5 L0,10 z" fill="#d93025"/></marker><marker id="ab" viewBox="0 0 10 10" refX="9" refY="5" markerWidth="7" markerHeight="7" orient="auto-start-reverse"><path d="M0,0 L10,5 L0,10 z" fill="#3b5bdb"/></marker><marker id="tri" viewBox="0 0 12 12" refX="11" refY="6" markerWidth="13" markerHeight="13" orient="auto-start-reverse"><path d="M0,0 L12,6 L0,12 z" fill="#fff" stroke="#333" stroke-width="1"/></marker></defs>
<rect width="100%" height="100%" fill="#fff"/>
<rect x="50" y="15" width="100" height="22" rx="0" fill="#fff" stroke="#333" stroke-width="1.2"/>
<text x="100.0" y="31" font-family="'Source Code Pro','Consolas','Menlo',monospace" font-size="13" fill="#333" text-anchor="middle" font-weight="normal" xml:space="preserve">IInf1</text>
<rect x="50" y="37" width="100" height="42" rx="0" fill="#fff" stroke="#333" stroke-width="1.2"/>
<text x="58" y="54" font-family="'Source Code Pro','Consolas','Menlo',monospace" font-size="12" fill="#333" text-anchor="start" font-weight="normal" xml:space="preserve">func1()</text>
<text x="58" y="71" font-family="'Source Code Pro','Consolas','Menlo',monospace" font-size="12" fill="#333" text-anchor="start" font-weight="normal" xml:space="preserve">func2()</text>
<rect x="330" y="15" width="100" height="22" rx="0" fill="#fff" stroke="#333" stroke-width="1.2"/>
<text x="380.0" y="31" font-family="'Source Code Pro','Consolas','Menlo',monospace" font-size="13" fill="#333" text-anchor="middle" font-weight="normal" xml:space="preserve">IInf2</text>
<rect x="330" y="37" width="100" height="42" rx="0" fill="#fff" stroke="#333" stroke-width="1.2"/>
<text x="338" y="54" font-family="'Source Code Pro','Consolas','Menlo',monospace" font-size="12" fill="#333" text-anchor="start" font-weight="normal" xml:space="preserve">func3()</text>
<text x="338" y="71" font-family="'Source Code Pro','Consolas','Menlo',monospace" font-size="12" fill="#333" text-anchor="start" font-weight="normal" xml:space="preserve">func4()</text>
<rect x="180" y="165" width="100" height="22" rx="0" fill="#fff" stroke="#333" stroke-width="1.2"/>
<text x="230.0" y="181" font-family="'Source Code Pro','Consolas','Menlo',monospace" font-size="13" fill="#333" text-anchor="middle" font-weight="normal" xml:space="preserve">Sample</text>
<rect x="180" y="187" width="100" height="76" rx="0" fill="#fff" stroke="#333" stroke-width="1.2"/>
<text x="188" y="204" font-family="'Source Code Pro','Consolas','Menlo',monospace" font-size="12" fill="#333" text-anchor="start" font-weight="normal" xml:space="preserve">func1()</text>
<text x="188" y="221" font-family="'Source Code Pro','Consolas','Menlo',monospace" font-size="12" fill="#333" text-anchor="start" font-weight="normal" xml:space="preserve">func2()</text>
<text x="188" y="238" font-family="'Source Code Pro','Consolas','Menlo',monospace" font-size="12" fill="#333" text-anchor="start" font-weight="normal" xml:space="preserve">func3()</text>
<text x="188" y="255" font-family="'Source Code Pro','Consolas','Menlo',monospace" font-size="12" fill="#333" text-anchor="start" font-weight="normal" xml:space="preserve">func4()</text>
<line x1="230" y1="165" x2="112" y2="74" stroke="#333" stroke-width="1.2" marker-end="url(#tri)"/>
<line x1="230" y1="165" x2="368" y2="74" stroke="#333" stroke-width="1.2" marker-end="url(#tri)"/>
<rect x="183" y="190" width="70" height="34" rx="0" fill="none" stroke="#3b5bdb" stroke-width="1.2" stroke-dasharray="2 2"/>
<rect x="183" y="224" width="70" height="34" rx="0" fill="none" stroke="#d93025" stroke-width="1.2" stroke-dasharray="2 2"/>
<path d="M50,60 C10,120 40,205 181,207" fill="none" stroke="#3b5bdb" stroke-width="1.2" stroke-dasharray="3 3" marker-end="url(#ab)"/>
<path d="M430,60 C470,140 440,240 255,241" fill="none" stroke="#d93025" stroke-width="1.2" stroke-dasharray="3 3" marker-end="url(#ar)"/>
<polygon points="80.0,250 100.0,250 80,200" fill="#fff" stroke="#777" stroke-width="1"/>
<rect x="20" y="250" width="140" height="48" rx="10" fill="#fff" stroke="#777" stroke-width="1"/>
<line x1="80.0" y1="250.0" x2="100.0" y2="250.0" stroke="#fff" stroke-width="2"/>
<text x="90.0" y="270.7" font-family="'Noto Sans JP','Hiragino Sans','Meiryo',sans-serif" font-size="12" fill="#333" text-anchor="middle" font-weight="normal" xml:space="preserve">func1()とfunc2()</text>
<text x="90.0" y="285.7" font-family="'Noto Sans JP','Hiragino Sans','Meiryo',sans-serif" font-size="12" fill="#333" text-anchor="middle" font-weight="normal" xml:space="preserve">のみアクセス可能</text>
<polygon points="380.0,260 400.0,260 380,230" fill="#fff" stroke="#777" stroke-width="1"/>
<rect x="320" y="260" width="140" height="48" rx="10" fill="#fff" stroke="#777" stroke-width="1"/>
<line x1="380.0" y1="260.0" x2="400.0" y2="260.0" stroke="#fff" stroke-width="2"/>
<text x="390.0" y="280.7" font-family="'Noto Sans JP','Hiragino Sans','Meiryo',sans-serif" font-size="12" fill="#333" text-anchor="middle" font-weight="normal" xml:space="preserve">func3()とfunc4()</text>
<text x="390.0" y="295.7" font-family="'Noto Sans JP','Hiragino Sans','Meiryo',sans-serif" font-size="12" fill="#333" text-anchor="middle" font-weight="normal" xml:space="preserve">のみアクセス可能</text>
</svg>
